const cueSet1 = [
    {
          "duration": 0.441176,
          "durationTicks": 7680,
          "midi": 81,
          "name": "A5",
          "ticks": 0,
          "time": 0,
          "velocity": 0.7874015748031497
        },
        {
          "duration": 1.764704,
          "durationTicks": 30720,
          "midi": 81,
          "name": "A5",
          "ticks": 0,
          "time": 0,
          "velocity": 0.7874015748031497
        },
        {
          "duration": 0.441176,
          "durationTicks": 7680,
          "midi": 76,
          "name": "E5",
          "ticks": 7680,
          "time": 0.441176,
          "velocity": 0.7874015748031497
        },
        {
          "duration": 0.441176,
          "durationTicks": 7680,
          "midi": 72,
          "name": "C5",
          "ticks": 15360,
          "time": 0.882352,
          "velocity": 0.7874015748031497
        },
        {
          "duration": 0.441176,
          "durationTicks": 7680,
          "midi": 76,
          "name": "E5",
          "ticks": 23040,
          "time": 1.323528,
          "velocity": 0.7874015748031497
        },
        {
          "duration": 0.441176,
          "durationTicks": 7680,
          "midi": 77,
          "name": "F5",
          "ticks": 30720,
          "time": 1.764704,
          "velocity": 0.7874015748031497
        },
        {
          "duration": 1.764704,
          "durationTicks": 30720,
          "midi": 77,
          "name": "F5",
          "ticks": 30720,
          "time": 1.764704,
          "velocity": 0.7874015748031497
        },
        {
          "duration": 0.441176,
          "durationTicks": 7680,
          "midi": 72,
          "name": "C5",
          "ticks": 38400,
          "time": 2.20588,
          "velocity": 0.7874015748031497
        },
        {
          "duration": 0.441176,
          "durationTicks": 7680,
          "midi": 69,
          "name": "A4",
          "ticks": 46080,
          "time": 2.647056,
          "velocity": 0.7874015748031497
        },
        {
          "duration": 0.441176,
          "durationTicks": 7680,
          "midi": 72,
          "name": "C5",
          "ticks": 53760,
          "time": 3.088232,
          "velocity": 0.7874015748031497
        },
        {
          "duration": 0.441176,
          "durationTicks": 7680,
          "midi": 69,
          "name": "A4",
          "ticks": 61440,
          "time": 3.529408,
          "velocity": 0.7874015748031497
        },
        {
          "duration": 1.764704,
          "durationTicks": 30720,
          "midi": 69,
          "name": "A4",
          "ticks": 61440,
          "time": 3.529408,
          "velocity": 0.7874015748031497
        },
        {
          "duration": 0.441176,
          "durationTicks": 7680,
          "midi": 64,
          "name": "E4",
          "ticks": 69120,
          "time": 3.970584,
          "velocity": 0.7874015748031497
        },
        {
          "duration": 0.44117599999999957,
          "durationTicks": 7680,
          "midi": 60,
          "name": "C4",
          "ticks": 76800,
          "time": 4.41176,
          "velocity": 0.7874015748031497
        },
        {
          "duration": 0.44117600000000046,
          "durationTicks": 7680,
          "midi": 64,
          "name": "E4",
          "ticks": 84480,
          "time": 4.852936,
          "velocity": 0.7874015748031497
        },
        {
          "duration": 0.44117600000000046,
          "durationTicks": 7680,
          "midi": 65,
          "name": "F4",
          "ticks": 92160,
          "time": 5.294112,
          "velocity": 0.7874015748031497
        },
        {
          "duration": 1.764704,
          "durationTicks": 30720,
          "midi": 65,
          "name": "F4",
          "ticks": 92160,
          "time": 5.294112,
          "velocity": 0.7874015748031497
        },
        {
          "duration": 0.44117599999999957,
          "durationTicks": 7680,
          "midi": 60,
          "name": "C4",
          "ticks": 99840,
          "time": 5.735288000000001,
          "velocity": 0.7874015748031497
        },
        {
          "duration": 0.44117599999999957,
          "durationTicks": 7680,
          "midi": 57,
          "name": "A3",
          "ticks": 107520,
          "time": 6.176464,
          "velocity": 0.7874015748031497
        },
        {
          "duration": 0.44117600000000046,
          "durationTicks": 7680,
          "midi": 60,
          "name": "C4",
          "ticks": 115200,
          "time": 6.61764,
          "velocity": 0.7874015748031497
        },
        {
          "duration": 0.44117600000000046,
          "durationTicks": 7680,
          "midi": 81,
          "name": "A5",
          "ticks": 122880,
          "time": 7.058816,
          "velocity": 0.7874015748031497
        },
        {
          "duration": 1.764704,
          "durationTicks": 30720,
          "midi": 81,
          "name": "A5",
          "ticks": 122880,
          "time": 7.058816,
          "velocity": 0.7874015748031497
        },
        {
          "duration": 0.44117599999999957,
          "durationTicks": 7680,
          "midi": 84,
          "name": "C6",
          "ticks": 130560,
          "time": 7.499992000000001,
          "velocity": 0.7874015748031497
        },
        {
          "duration": 0.44117599999999957,
          "durationTicks": 7680,
          "midi": 76,
          "name": "E5",
          "ticks": 138240,
          "time": 7.941168,
          "velocity": 0.7874015748031497
        },
        {
          "duration": 0.44117600000000046,
          "durationTicks": 7680,
          "midi": 72,
          "name": "C5",
          "ticks": 145920,
          "time": 8.382344,
          "velocity": 0.7874015748031497
        },
        {
          "duration": 0.44117600000000046,
          "durationTicks": 7680,
          "midi": 77,
          "name": "F5",
          "ticks": 153600,
          "time": 8.82352,
          "velocity": 0.7874015748031497
        },
        {
          "duration": 1.764704,
          "durationTicks": 30720,
          "midi": 77,
          "name": "F5",
          "ticks": 153600,
          "time": 8.82352,
          "velocity": 0.7874015748031497
        },
        {
          "duration": 0.4411759999999987,
          "durationTicks": 7680,
          "midi": 81,
          "name": "A5",
          "ticks": 161280,
          "time": 9.264696,
          "velocity": 0.7874015748031497
        },
        {
          "duration": 0.44117600000000046,
          "durationTicks": 7680,
          "midi": 84,
          "name": "C6",
          "ticks": 168960,
          "time": 9.705872,
          "velocity": 0.7874015748031497
        },
        {
          "duration": 0.44117600000000046,
          "durationTicks": 7680,
          "midi": 81,
          "name": "A5",
          "ticks": 176640,
          "time": 10.147048,
          "velocity": 0.7874015748031497
        },
        {
          "duration": 0.44117600000000046,
          "durationTicks": 7680,
          "midi": 81,
          "name": "A5",
          "ticks": 184320,
          "time": 10.588224,
          "velocity": 0.7874015748031497
        },
        {
          "duration": 1.764704,
          "durationTicks": 30720,
          "midi": 81,
          "name": "A5",
          "ticks": 184320,
          "time": 10.588224,
          "velocity": 0.7874015748031497
        },
        {
          "duration": 0.44117600000000046,
          "durationTicks": 7680,
          "midi": 84,
          "name": "C6",
          "ticks": 192000,
          "time": 11.0294,
          "velocity": 0.7874015748031497
        },
        {
          "duration": 0.4411759999999987,
          "durationTicks": 7680,
          "midi": 88,
          "name": "E6",
          "ticks": 199680,
          "time": 11.470576000000001,
          "velocity": 0.7874015748031497
        },
        {
          "duration": 0.44117600000000046,
          "durationTicks": 7680,
          "midi": 84,
          "name": "C6",
          "ticks": 207360,
          "time": 11.911752,
          "velocity": 0.7874015748031497
        },
        {
          "duration": 0.44117600000000046,
          "durationTicks": 7680,
          "midi": 76,
          "name": "E5",
          "ticks": 215040,
          "time": 12.352928,
          "velocity": 0.7874015748031497
        },
        {
          "duration": 1.764704,
          "durationTicks": 30720,
          "midi": 76,
          "name": "E5",
          "ticks": 215040,
          "time": 12.352928,
          "velocity": 0.7874015748031497
        },
        {
          "duration": 0.4411759999999987,
          "durationTicks": 7680,
          "midi": 80,
          "name": "G#5",
          "ticks": 222720,
          "time": 12.794104,
          "velocity": 0.7874015748031497
        },
        {
          "duration": 0.44117600000000046,
          "durationTicks": 7680,
          "midi": 83,
          "name": "B5",
          "ticks": 230400,
          "time": 13.23528,
          "velocity": 0.7874015748031497
        },
        {
          "duration": 0.44117600000000046,
          "durationTicks": 7680,
          "midi": 80,
          "name": "G#5",
          "ticks": 238080,
          "time": 13.676456,
          "velocity": 0.7874015748031497
        },
        {
          "duration": 0.44117600000000046,
          "durationTicks": 7680,
          "midi": 84,
          "name": "C6",
          "ticks": 245760,
          "time": 14.117632,
          "velocity": 0.7874015748031497
        },
        {
          "duration": 1.764704,
          "durationTicks": 30720,
          "midi": 84,
          "name": "C6",
          "ticks": 245760,
          "time": 14.117632,
          "velocity": 0.7874015748031497
        },
        {
          "duration": 0.44117600000000046,
          "durationTicks": 7680,
          "midi": 81,
          "name": "A5",
          "ticks": 253440,
          "time": 14.558808,
          "velocity": 0.7874015748031497
        },
        {
          "duration": 0.4411759999999987,
          "durationTicks": 7680,
          "midi": 76,
          "name": "E5",
          "ticks": 261120,
          "time": 14.999984000000001,
          "velocity": 0.7874015748031497
        },
        {
          "duration": 0.44117600000000046,
          "durationTicks": 7680,
          "midi": 81,
          "name": "A5",
          "ticks": 268800,
          "time": 15.44116,
          "velocity": 0.7874015748031497
        },
        {
          "duration": 0.8823519999999991,
          "durationTicks": 15360,
          "midi": 86,
          "name": "D6",
          "ticks": 276480,
          "time": 15.882336,
          "velocity": 0.7874015748031497
        },
        {
          "duration": 0.44117600000000046,
          "durationTicks": 7680,
          "midi": 89,
          "name": "F6",
          "ticks": 276480,
          "time": 15.882336,
          "velocity": 0.7874015748031497
        },
        {
          "duration": 1.3235279999999996,
          "durationTicks": 23040,
          "midi": 86,
          "name": "D6",
          "ticks": 284160,
          "time": 16.323512,
          "velocity": 0.7874015748031497
        },
        {
          "duration": 0.44117600000000223,
          "durationTicks": 7680,
          "midi": 89,
          "name": "F6",
          "ticks": 291840,
          "time": 16.764688,
          "velocity": 0.7874015748031497
        },
        {
          "duration": 0.4411759999999987,
          "durationTicks": 7680,
          "midi": 86,
          "name": "D6",
          "ticks": 299520,
          "time": 17.205864000000002,
          "velocity": 0.7874015748031497
        },
        {
          "duration": 0.4411759999999987,
          "durationTicks": 7680,
          "midi": 72,
          "name": "C5",
          "ticks": 307200,
          "time": 17.64704,
          "velocity": 0.7874015748031497
        },
        {
          "duration": 1.7647039999999983,
          "durationTicks": 30720,
          "midi": 72,
          "name": "C5",
          "ticks": 307200,
          "time": 17.64704,
          "velocity": 0.7874015748031497
        },
        {
          "duration": 0.44117600000000223,
          "durationTicks": 7680,
          "midi": 69,
          "name": "A4",
          "ticks": 314880,
          "time": 18.088216,
          "velocity": 0.7874015748031497
        },
        {
          "duration": 0.4411759999999987,
          "durationTicks": 7680,
          "midi": 64,
          "name": "E4",
          "ticks": 322560,
          "time": 18.529392,
          "velocity": 0.7874015748031497
        },
        {
          "duration": 0.4411759999999987,
          "durationTicks": 7680,
          "midi": 69,
          "name": "A4",
          "ticks": 330240,
          "time": 18.970568,
          "velocity": 0.7874015748031497
        },
        {
          "duration": 0.8823520000000009,
          "durationTicks": 15360,
          "midi": 74,
          "name": "D5",
          "ticks": 337920,
          "time": 19.411744,
          "velocity": 0.7874015748031497
        },
        {
          "duration": 0.44117600000000223,
          "durationTicks": 7680,
          "midi": 77,
          "name": "F5",
          "ticks": 337920,
          "time": 19.411744,
          "velocity": 0.7874015748031497
        },
        {
          "duration": 1.3235279999999996,
          "durationTicks": 23040,
          "midi": 74,
          "name": "D5",
          "ticks": 345600,
          "time": 19.85292,
          "velocity": 0.7874015748031497
        },
        {
          "duration": 0.44117600000000223,
          "durationTicks": 7680,
          "midi": 77,
          "name": "F5",
          "ticks": 353280,
          "time": 20.294096,
          "velocity": 0.7874015748031497
        },
        {
          "duration": 0.4411759999999987,
          "durationTicks": 7680,
          "midi": 74,
          "name": "D5",
          "ticks": 360960,
          "time": 20.735272000000002,
          "velocity": 0.7874015748031497
        },
        {
          "duration": 0.4411759999999987,
          "durationTicks": 7680,
          "midi": 81,
          "name": "A5",
          "ticks": 368640,
          "time": 21.176448,
          "velocity": 0.7874015748031497
        },
        {
          "duration": 1.7647040000000018,
          "durationTicks": 30720,
          "midi": 81,
          "name": "A5",
          "ticks": 368640,
          "time": 21.176448,
          "velocity": 0.7874015748031497
        },
        {
          "duration": 0.44117600000000223,
          "durationTicks": 7680,
          "midi": 84,
          "name": "C6",
          "ticks": 376320,
          "time": 21.617624,
          "velocity": 0.7874015748031497
        },
        {
          "duration": 0.4411759999999987,
          "durationTicks": 7680,
          "midi": 86,
          "name": "D6",
          "ticks": 384000,
          "time": 22.0588,
          "velocity": 0.7874015748031497
        },
        {
          "duration": 0.44117600000000223,
          "durationTicks": 7680,
          "midi": 84,
          "name": "C6",
          "ticks": 391680,
          "time": 22.499976,
          "velocity": 0.7874015748031497
        },
        {
          "duration": 0.4411759999999987,
          "durationTicks": 7680,
          "midi": 86,
          "name": "D6",
          "ticks": 399360,
          "time": 22.941152000000002,
          "velocity": 0.7874015748031497
        },
        {
          "duration": 1.7647039999999983,
          "durationTicks": 30720,
          "midi": 86,
          "name": "D6",
          "ticks": 399360,
          "time": 22.941152000000002,
          "velocity": 0.7874015748031497
        },
        {
          "duration": 0.4411759999999987,
          "durationTicks": 7680,
          "midi": 83,
          "name": "B5",
          "ticks": 407040,
          "time": 23.382328,
          "velocity": 0.7874015748031497
        },
        {
          "duration": 0.44117600000000223,
          "durationTicks": 7680,
          "midi": 89,
          "name": "F6",
          "ticks": 414720,
          "time": 23.823504,
          "velocity": 0.7874015748031497
        },
        {
          "duration": 0.4411759999999987,
          "durationTicks": 7680,
          "midi": 81,
          "name": "A5",
          "ticks": 422400,
          "time": 24.264680000000002,
          "velocity": 0.7874015748031497
        },
        {
          "duration": 0.4411759999999987,
          "durationTicks": 7680,
          "midi": 88,
          "name": "E6",
          "ticks": 430080,
          "time": 24.705856,
          "velocity": 0.7874015748031497
        },
        {
          "duration": 1.3235279999999996,
          "durationTicks": 23040,
          "midi": 88,
          "name": "E6",
          "ticks": 430080,
          "time": 24.705856,
          "velocity": 0.7874015748031497
        },
        {
          "duration": 0.44117600000000223,
          "durationTicks": 7680,
          "midi": 83,
          "name": "B5",
          "ticks": 437760,
          "time": 25.147032,
          "velocity": 0.7874015748031497
        },
        {
          "duration": 0.8823519999999974,
          "durationTicks": 15360,
          "midi": 88,
          "name": "E6",
          "ticks": 445440,
          "time": 25.588208,
          "velocity": 0.7874015748031497
        },
        {
          "duration": 0.4411759999999987,
          "durationTicks": 7680,
          "midi": 80,
          "name": "G#5",
          "ticks": 453120,
          "time": 26.029384,
          "velocity": 0.7874015748031497
        },
        {
          "duration": 0.44117600000000223,
          "durationTicks": 7680,
          "midi": 81,
          "name": "A5",
          "ticks": 460800,
          "time": 26.47056,
          "velocity": 0.7874015748031497
        },
        {
          "duration": 1.7647040000000018,
          "durationTicks": 30720,
          "midi": 81,
          "name": "A5",
          "ticks": 460800,
          "time": 26.47056,
          "velocity": 0.7874015748031497
        },
        {
          "duration": 0.4411759999999987,
          "durationTicks": 7680,
          "midi": 84,
          "name": "C6",
          "ticks": 468480,
          "time": 26.911736,
          "velocity": 0.7874015748031497
        },
        {
          "duration": 0.8823520000000009,
          "durationTicks": 15360,
          "midi": 81,
          "name": "A5",
          "ticks": 476160,
          "time": 27.352912,
          "velocity": 0.7874015748031497
        },
        {
          "duration": 0.4411759999999987,
          "durationTicks": 7680,
          "midi": 81,
          "name": "A5",
          "ticks": 491520,
          "time": 28.235264,
          "velocity": 0.7874015748031497
        },
        {
          "duration": 1.7647040000000018,
          "durationTicks": 30720,
          "midi": 81,
          "name": "A5",
          "ticks": 491520,
          "time": 28.235264,
          "velocity": 0.7874015748031497
        },
        {
          "duration": 0.44117600000000223,
          "durationTicks": 7680,
          "midi": 76,
          "name": "E5",
          "ticks": 499200,
          "time": 28.67644,
          "velocity": 0.7874015748031497
        },
        {
          "duration": 0.4411759999999987,
          "durationTicks": 7680,
          "midi": 72,
          "name": "C5",
          "ticks": 506880,
          "time": 29.117616,
          "velocity": 0.7874015748031497
        },
        {
          "duration": 0.44117600000000223,
          "durationTicks": 7680,
          "midi": 76,
          "name": "E5",
          "ticks": 514560,
          "time": 29.558792,
          "velocity": 0.7874015748031497
        },
        {
          "duration": 0.4411759999999987,
          "durationTicks": 7680,
          "midi": 77,
          "name": "F5",
          "ticks": 522240,
          "time": 29.999968000000003,
          "velocity": 0.7874015748031497
        },
        {
          "duration": 1.7647039999999983,
          "durationTicks": 30720,
          "midi": 77,
          "name": "F5",
          "ticks": 522240,
          "time": 29.999968000000003,
          "velocity": 0.7874015748031497
        },
        {
          "duration": 0.4411759999999987,
          "durationTicks": 7680,
          "midi": 72,
          "name": "C5",
          "ticks": 529920,
          "time": 30.441144,
          "velocity": 0.7874015748031497
        },
        {
          "duration": 0.44117600000000223,
          "durationTicks": 7680,
          "midi": 69,
          "name": "A4",
          "ticks": 537600,
          "time": 30.88232,
          "velocity": 0.7874015748031497
        },
        {
          "duration": 0.4411759999999987,
          "durationTicks": 7680,
          "midi": 72,
          "name": "C5",
          "ticks": 545280,
          "time": 31.323496000000002,
          "velocity": 0.7874015748031497
        },
        {
          "duration": 0.8823520000000009,
          "durationTicks": 15360,
          "midi": 57,
          "name": "A3",
          "ticks": 552960,
          "time": 31.764672,
          "velocity": 0.7874015748031497
        },
        {
          "duration": 0.44117600000000223,
          "durationTicks": 7680,
          "midi": 69,
          "name": "A4",
          "ticks": 552960,
          "time": 31.764672,
          "velocity": 0.7874015748031497
        },
        {
          "duration": 1.7647039999999983,
          "durationTicks": 30720,
          "midi": 69,
          "name": "A4",
          "ticks": 552960,
          "time": 31.764672,
          "velocity": 0.7874015748031497
        },
        {
          "duration": 0.4411759999999987,
          "durationTicks": 7680,
          "midi": 64,
          "name": "E4",
          "ticks": 560640,
          "time": 32.205848,
          "velocity": 0.7874015748031497
        },
        {
          "duration": 0.8823519999999974,
          "durationTicks": 15360,
          "midi": 55,
          "name": "G3",
          "ticks": 568320,
          "time": 32.647024,
          "velocity": 0.7874015748031497
        },
        {
          "duration": 0.4411759999999987,
          "durationTicks": 7680,
          "midi": 60,
          "name": "C4",
          "ticks": 568320,
          "time": 32.647024,
          "velocity": 0.7874015748031497
        },
        {
          "duration": 0.4411759999999987,
          "durationTicks": 7680,
          "midi": 64,
          "name": "E4",
          "ticks": 576000,
          "time": 33.0882,
          "velocity": 0.7874015748031497
        },
        {
          "duration": 0.8823520000000045,
          "durationTicks": 15360,
          "midi": 53,
          "name": "F3",
          "ticks": 583680,
          "time": 33.529376,
          "velocity": 0.7874015748031497
        },
        {
          "duration": 0.4411759999999987,
          "durationTicks": 7680,
          "midi": 65,
          "name": "F4",
          "ticks": 583680,
          "time": 33.529376,
          "velocity": 0.7874015748031497
        },
        {
          "duration": 1.7647040000000018,
          "durationTicks": 30720,
          "midi": 65,
          "name": "F4",
          "ticks": 583680,
          "time": 33.529376,
          "velocity": 0.7874015748031497
        },
        {
          "duration": 0.4411760000000058,
          "durationTicks": 7680,
          "midi": 60,
          "name": "C4",
          "ticks": 591360,
          "time": 33.970552,
          "velocity": 0.7874015748031497
        },
        {
          "duration": 0.8823519999999974,
          "durationTicks": 15360,
          "midi": 52,
          "name": "E3",
          "ticks": 599040,
          "time": 34.411728000000004,
          "velocity": 0.7874015748031497
        },
        {
          "duration": 0.4411759999999987,
          "durationTicks": 7680,
          "midi": 57,
          "name": "A3",
          "ticks": 599040,
          "time": 34.411728000000004,
          "velocity": 0.7874015748031497
        },
        {
          "duration": 0.4411759999999987,
          "durationTicks": 7680,
          "midi": 60,
          "name": "C4",
          "ticks": 606720,
          "time": 34.852904,
          "velocity": 0.7874015748031497
        },
        {
          "duration": 0.4411759999999987,
          "durationTicks": 7680,
          "midi": 81,
          "name": "A5",
          "ticks": 614400,
          "time": 35.29408,
          "velocity": 0.7874015748031497
        },
        {
          "duration": 1.7647040000000018,
          "durationTicks": 30720,
          "midi": 81,
          "name": "A5",
          "ticks": 614400,
          "time": 35.29408,
          "velocity": 0.7874015748031497
        },
        {
          "duration": 0.4411759999999987,
          "durationTicks": 7680,
          "midi": 84,
          "name": "C6",
          "ticks": 622080,
          "time": 35.735256,
          "velocity": 0.7874015748031497
        },
        {
          "duration": 0.4411760000000058,
          "durationTicks": 7680,
          "midi": 76,
          "name": "E5",
          "ticks": 629760,
          "time": 36.176432,
          "velocity": 0.7874015748031497
        },
        {
          "duration": 0.4411759999999987,
          "durationTicks": 7680,
          "midi": 72,
          "name": "C5",
          "ticks": 637440,
          "time": 36.617608000000004,
          "velocity": 0.7874015748031497
        },
        {
          "duration": 0.4411759999999987,
          "durationTicks": 7680,
          "midi": 77,
          "name": "F5",
          "ticks": 645120,
          "time": 37.058784,
          "velocity": 0.7874015748031497
        },
        {
          "duration": 1.7647039999999947,
          "durationTicks": 30720,
          "midi": 77,
          "name": "F5",
          "ticks": 645120,
          "time": 37.058784,
          "velocity": 0.7874015748031497
        },
        {
          "duration": 0.4411759999999987,
          "durationTicks": 7680,
          "midi": 81,
          "name": "A5",
          "ticks": 652800,
          "time": 37.49996,
          "velocity": 0.7874015748031497
        },
        {
          "duration": 0.4411759999999987,
          "durationTicks": 7680,
          "midi": 84,
          "name": "C6",
          "ticks": 660480,
          "time": 37.941136,
          "velocity": 0.7874015748031497
        },
        {
          "duration": 0.4411759999999987,
          "durationTicks": 7680,
          "midi": 81,
          "name": "A5",
          "ticks": 668160,
          "time": 38.382312,
          "velocity": 0.7874015748031497
        },
        {
          "duration": 0.4411760000000058,
          "durationTicks": 7680,
          "midi": 81,
          "name": "A5",
          "ticks": 675840,
          "time": 38.823488,
          "velocity": 0.7874015748031497
        },
        {
          "duration": 1.7647040000000018,
          "durationTicks": 30720,
          "midi": 81,
          "name": "A5",
          "ticks": 675840,
          "time": 38.823488,
          "velocity": 0.7874015748031497
        },
        {
          "duration": 0.4411759999999987,
          "durationTicks": 7680,
          "midi": 84,
          "name": "C6",
          "ticks": 683520,
          "time": 39.264664,
          "velocity": 0.7874015748031497
        },
        {
          "duration": 0.4411759999999987,
          "durationTicks": 7680,
          "midi": 88,
          "name": "E6",
          "ticks": 691200,
          "time": 39.70584,
          "velocity": 0.7874015748031497
        },
        {
          "duration": 0.4411759999999987,
          "durationTicks": 7680,
          "midi": 84,
          "name": "C6",
          "ticks": 698880,
          "time": 40.147016,
          "velocity": 0.7874015748031497
        },
        {
          "duration": 0.4411759999999987,
          "durationTicks": 7680,
          "midi": 76,
          "name": "E5",
          "ticks": 706560,
          "time": 40.588192,
          "velocity": 0.7874015748031497
        },
        {
          "duration": 1.7647040000000018,
          "durationTicks": 30720,
          "midi": 76,
          "name": "E5",
          "ticks": 706560,
          "time": 40.588192,
          "velocity": 0.7874015748031497
        },
        {
          "duration": 0.4411760000000058,
          "durationTicks": 7680,
          "midi": 80,
          "name": "G#5",
          "ticks": 714240,
          "time": 41.029368,
          "velocity": 0.7874015748031497
        },
        {
          "duration": 0.4411759999999987,
          "durationTicks": 7680,
          "midi": 83,
          "name": "B5",
          "ticks": 721920,
          "time": 41.470544000000004,
          "velocity": 0.7874015748031497
        },
        {
          "duration": 0.4411759999999987,
          "durationTicks": 7680,
          "midi": 80,
          "name": "G#5",
          "ticks": 729600,
          "time": 41.91172,
          "velocity": 0.7874015748031497
        },
        {
          "duration": 0.4411759999999987,
          "durationTicks": 7680,
          "midi": 84,
          "name": "C6",
          "ticks": 737280,
          "time": 42.352896,
          "velocity": 0.7874015748031497
        },
        {
          "duration": 1.7647040000000018,
          "durationTicks": 30720,
          "midi": 84,
          "name": "C6",
          "ticks": 737280,
          "time": 42.352896,
          "velocity": 0.7874015748031497
        },
        {
          "duration": 0.4411759999999987,
          "durationTicks": 7680,
          "midi": 81,
          "name": "A5",
          "ticks": 744960,
          "time": 42.794072,
          "velocity": 0.7874015748031497
        },
        {
          "duration": 0.4411760000000058,
          "durationTicks": 7680,
          "midi": 76,
          "name": "E5",
          "ticks": 752640,
          "time": 43.235248,
          "velocity": 0.7874015748031497
        },
        {
          "duration": 0.4411759999999987,
          "durationTicks": 7680,
          "midi": 81,
          "name": "A5",
          "ticks": 760320,
          "time": 43.676424000000004,
          "velocity": 0.7874015748031497
        },
        {
          "duration": 0.8823519999999974,
          "durationTicks": 15360,
          "midi": 86,
          "name": "D6",
          "ticks": 768000,
          "time": 44.1176,
          "velocity": 0.7874015748031497
        },
        {
          "duration": 0.4411759999999987,
          "durationTicks": 7680,
          "midi": 89,
          "name": "F6",
          "ticks": 768000,
          "time": 44.1176,
          "velocity": 0.7874015748031497
        },
        {
          "duration": 1.3235280000000031,
          "durationTicks": 23040,
          "midi": 86,
          "name": "D6",
          "ticks": 775680,
          "time": 44.558776,
          "velocity": 0.7874015748031497
        },
        {
          "duration": 0.4411759999999987,
          "durationTicks": 7680,
          "midi": 89,
          "name": "F6",
          "ticks": 783360,
          "time": 44.999952,
          "velocity": 0.7874015748031497
        },
        {
          "duration": 0.4411760000000058,
          "durationTicks": 7680,
          "midi": 86,
          "name": "D6",
          "ticks": 791040,
          "time": 45.441128,
          "velocity": 0.7874015748031497
        },
        {
          "duration": 0.4411759999999987,
          "durationTicks": 7680,
          "midi": 72,
          "name": "C5",
          "ticks": 798720,
          "time": 45.882304000000005,
          "velocity": 0.7874015748031497
        },
        {
          "duration": 1.7647039999999947,
          "durationTicks": 30720,
          "midi": 72,
          "name": "C5",
          "ticks": 798720,
          "time": 45.882304000000005,
          "velocity": 0.7874015748031497
        },
        {
          "duration": 0.4411759999999987,
          "durationTicks": 7680,
          "midi": 69,
          "name": "A4",
          "ticks": 806400,
          "time": 46.32348,
          "velocity": 0.7874015748031497
        },
        {
          "duration": 0.4411759999999987,
          "durationTicks": 7680,
          "midi": 64,
          "name": "E4",
          "ticks": 814080,
          "time": 46.764656,
          "velocity": 0.7874015748031497
        },
        {
          "duration": 0.4411759999999987,
          "durationTicks": 7680,
          "midi": 69,
          "name": "A4",
          "ticks": 821760,
          "time": 47.205832,
          "velocity": 0.7874015748031497
        },
        {
          "duration": 0.8823520000000045,
          "durationTicks": 15360,
          "midi": 74,
          "name": "D5",
          "ticks": 829440,
          "time": 47.647008,
          "velocity": 0.7874015748031497
        },
        {
          "duration": 0.4411759999999987,
          "durationTicks": 7680,
          "midi": 77,
          "name": "F5",
          "ticks": 829440,
          "time": 47.647008,
          "velocity": 0.7874015748031497
        },
        {
          "duration": 1.3235280000000031,
          "durationTicks": 23040,
          "midi": 74,
          "name": "D5",
          "ticks": 837120,
          "time": 48.088184,
          "velocity": 0.7874015748031497
        },
        {
          "duration": 0.4411759999999987,
          "durationTicks": 7680,
          "midi": 77,
          "name": "F5",
          "ticks": 844800,
          "time": 48.529360000000004,
          "velocity": 0.7874015748031497
        },
        {
          "duration": 0.4411759999999987,
          "durationTicks": 7680,
          "midi": 74,
          "name": "D5",
          "ticks": 852480,
          "time": 48.970536,
          "velocity": 0.7874015748031497
        },
        {
          "duration": 0.4411759999999987,
          "durationTicks": 7680,
          "midi": 81,
          "name": "A5",
          "ticks": 860160,
          "time": 49.411712,
          "velocity": 0.7874015748031497
        },
        {
          "duration": 1.7647040000000018,
          "durationTicks": 30720,
          "midi": 81,
          "name": "A5",
          "ticks": 860160,
          "time": 49.411712,
          "velocity": 0.7874015748031497
        },
        {
          "duration": 0.4411759999999987,
          "durationTicks": 7680,
          "midi": 84,
          "name": "C6",
          "ticks": 867840,
          "time": 49.852888,
          "velocity": 0.7874015748031497
        },
        {
          "duration": 0.4411760000000058,
          "durationTicks": 7680,
          "midi": 86,
          "name": "D6",
          "ticks": 875520,
          "time": 50.294064,
          "velocity": 0.7874015748031497
        },
        {
          "duration": 0.4411759999999987,
          "durationTicks": 7680,
          "midi": 84,
          "name": "C6",
          "ticks": 883200,
          "time": 50.735240000000005,
          "velocity": 0.7874015748031497
        },
        {
          "duration": 0.4411759999999987,
          "durationTicks": 7680,
          "midi": 86,
          "name": "D6",
          "ticks": 890880,
          "time": 51.176416,
          "velocity": 0.7874015748031497
        },
        {
          "duration": 1.7647039999999947,
          "durationTicks": 30720,
          "midi": 86,
          "name": "D6",
          "ticks": 890880,
          "time": 51.176416,
          "velocity": 0.7874015748031497
        },
        {
          "duration": 0.4411759999999987,
          "durationTicks": 7680,
          "midi": 83,
          "name": "B5",
          "ticks": 898560,
          "time": 51.617592,
          "velocity": 0.7874015748031497
        },
        {
          "duration": 0.4411759999999987,
          "durationTicks": 7680,
          "midi": 89,
          "name": "F6",
          "ticks": 906240,
          "time": 52.058768,
          "velocity": 0.7874015748031497
        },
        {
          "duration": 0.4411759999999987,
          "durationTicks": 7680,
          "midi": 81,
          "name": "A5",
          "ticks": 913920,
          "time": 52.499944,
          "velocity": 0.7874015748031497
        },
        {
          "duration": 0.4411760000000058,
          "durationTicks": 7680,
          "midi": 88,
          "name": "E6",
          "ticks": 921600,
          "time": 52.94112,
          "velocity": 0.7874015748031497
        },
        {
          "duration": 1.3235280000000031,
          "durationTicks": 23040,
          "midi": 88,
          "name": "E6",
          "ticks": 921600,
          "time": 52.94112,
          "velocity": 0.7874015748031497
        },
        {
          "duration": 0.4411759999999987,
          "durationTicks": 7680,
          "midi": 83,
          "name": "B5",
          "ticks": 929280,
          "time": 53.382296000000004,
          "velocity": 0.7874015748031497
        },
        {
          "duration": 0.8823519999999974,
          "durationTicks": 15360,
          "midi": 88,
          "name": "E6",
          "ticks": 936960,
          "time": 53.823472,
          "velocity": 0.7874015748031497
        },
        {
          "duration": 0.4411759999999987,
          "durationTicks": 7680,
          "midi": 80,
          "name": "G#5",
          "ticks": 944640,
          "time": 54.264648,
          "velocity": 0.7874015748031497
        },
        {
          "duration": 0.4411759999999987,
          "durationTicks": 7680,
          "midi": 81,
          "name": "A5",
          "ticks": 952320,
          "time": 54.705824,
          "velocity": 0.7874015748031497
        },
        {
          "duration": 1.7647040000000018,
          "durationTicks": 30720,
          "midi": 81,
          "name": "A5",
          "ticks": 952320,
          "time": 54.705824,
          "velocity": 0.7874015748031497
        },
        {
          "duration": 0.4411760000000058,
          "durationTicks": 7680,
          "midi": 84,
          "name": "C6",
          "ticks": 960000,
          "time": 55.147,
          "velocity": 0.7874015748031497
        },
        {
          "duration": 1.7647614447916666,
          "durationTicks": 30721,
          "midi": 81,
          "name": "A5",
          "ticks": 967680,
          "time": 55.588176000000004,
          "velocity": 0.7874015748031497
        }
];

export default cueSet1;
