const cueSet2 = [
    {
          "duration": 0.8823520000000009,
          "durationTicks": 15360,
          "midi": 48,
          "name": "C3",
          "ticks": 245760,
          "time": 14.117632,
          "velocity": 0.7874015748031497
        },
        {
          "duration": 0.8823519999999991,
          "durationTicks": 15360,
          "midi": 47,
          "name": "B2",
          "ticks": 261120,
          "time": 14.999984000000001,
          "velocity": 0.7874015748031497
        },
        {
          "duration": 0.8823519999999991,
          "durationTicks": 15360,
          "midi": 50,
          "name": "D3",
          "ticks": 276480,
          "time": 15.882336,
          "velocity": 0.7874015748031497
        },
        {
          "duration": 0.8823520000000009,
          "durationTicks": 15360,
          "midi": 53,
          "name": "F3",
          "ticks": 291840,
          "time": 16.764688,
          "velocity": 0.7874015748031497
        },
        {
          "duration": 0.8823520000000009,
          "durationTicks": 15360,
          "midi": 60,
          "name": "C4",
          "ticks": 307200,
          "time": 17.64704,
          "velocity": 0.7874015748031497
        },
        {
          "duration": 0.8823519999999974,
          "durationTicks": 15360,
          "midi": 59,
          "name": "B3",
          "ticks": 322560,
          "time": 18.529392,
          "velocity": 0.7874015748031497
        },
        {
          "duration": 0.8823520000000009,
          "durationTicks": 15360,
          "midi": 62,
          "name": "D4",
          "ticks": 337920,
          "time": 19.411744,
          "velocity": 0.7874015748031497
        },
        {
          "duration": 0.8823520000000009,
          "durationTicks": 15360,
          "midi": 65,
          "name": "F4",
          "ticks": 353280,
          "time": 20.294096,
          "velocity": 0.7874015748031497
        },
        {
          "duration": 0.8823520000000009,
          "durationTicks": 15360,
          "midi": 57,
          "name": "A3",
          "ticks": 368640,
          "time": 21.176448,
          "velocity": 0.7874015748031497
        },
        {
          "duration": 0.8823520000000009,
          "durationTicks": 15360,
          "midi": 55,
          "name": "G3",
          "ticks": 384000,
          "time": 22.0588,
          "velocity": 0.7874015748031497
        },
        {
          "duration": 0.8823519999999974,
          "durationTicks": 15360,
          "midi": 54,
          "name": "F#3",
          "ticks": 399360,
          "time": 22.941152000000002,
          "velocity": 0.7874015748031497
        },
        {
          "duration": 0.8823520000000009,
          "durationTicks": 15360,
          "midi": 52,
          "name": "E3",
          "ticks": 414720,
          "time": 23.823504,
          "velocity": 0.7874015748031497
        },
        {
          "duration": 0.8823520000000009,
          "durationTicks": 15360,
          "midi": 50,
          "name": "D3",
          "ticks": 430080,
          "time": 24.705856,
          "velocity": 0.7874015748031497
        },
        {
          "duration": 0.8823519999999974,
          "durationTicks": 15360,
          "midi": 48,
          "name": "C3",
          "ticks": 445440,
          "time": 25.588208,
          "velocity": 0.7874015748031497
        },
        {
          "duration": 0.8823520000000009,
          "durationTicks": 15360,
          "midi": 47,
          "name": "B2",
          "ticks": 460800,
          "time": 26.47056,
          "velocity": 0.7874015748031497
        },
        {
          "duration": 0.8823520000000009,
          "durationTicks": 15360,
          "midi": 45,
          "name": "A2",
          "ticks": 476160,
          "time": 27.352912,
          "velocity": 0.7874015748031497
        },
        {
          "duration": 0.8823520000000009,
          "durationTicks": 15360,
          "midi": 57,
          "name": "A3",
          "ticks": 491520,
          "time": 28.235264,
          "velocity": 0.7874015748031497
        },
        {
          "duration": 0.8823520000000009,
          "durationTicks": 15360,
          "midi": 55,
          "name": "G3",
          "ticks": 506880,
          "time": 29.117616,
          "velocity": 0.7874015748031497
        },
        {
          "duration": 0.8823519999999974,
          "durationTicks": 15360,
          "midi": 53,
          "name": "F3",
          "ticks": 522240,
          "time": 29.999968000000003,
          "velocity": 0.7874015748031497
        },
        {
          "duration": 0.8823520000000009,
          "durationTicks": 15360,
          "midi": 52,
          "name": "E3",
          "ticks": 537600,
          "time": 30.88232,
          "velocity": 0.7874015748031497
        },
        {
          "duration": 0.8823520000000009,
          "durationTicks": 15360,
          "midi": 69,
          "name": "A4",
          "ticks": 552960,
          "time": 31.764672,
          "velocity": 0.7874015748031497
        },
        {
          "duration": 0.8823519999999974,
          "durationTicks": 15360,
          "midi": 67,
          "name": "G4",
          "ticks": 568320,
          "time": 32.647024,
          "velocity": 0.7874015748031497
        },
        {
          "duration": 0.8823520000000045,
          "durationTicks": 15360,
          "midi": 65,
          "name": "F4",
          "ticks": 583680,
          "time": 33.529376,
          "velocity": 0.7874015748031497
        },
        {
          "duration": 0.8823519999999974,
          "durationTicks": 15360,
          "midi": 64,
          "name": "E4",
          "ticks": 599040,
          "time": 34.411728000000004,
          "velocity": 0.7874015748031497
        },
        {
          "duration": 0.8823519999999974,
          "durationTicks": 15360,
          "midi": 57,
          "name": "A3",
          "ticks": 614400,
          "time": 35.29408,
          "velocity": 0.7874015748031497
        },
        {
          "duration": 0.8823520000000045,
          "durationTicks": 15360,
          "midi": 55,
          "name": "G3",
          "ticks": 629760,
          "time": 36.176432,
          "velocity": 0.7874015748031497
        },
        {
          "duration": 0.8823519999999974,
          "durationTicks": 15360,
          "midi": 53,
          "name": "F3",
          "ticks": 645120,
          "time": 37.058784,
          "velocity": 0.7874015748031497
        },
        {
          "duration": 0.8823519999999974,
          "durationTicks": 15360,
          "midi": 52,
          "name": "E3",
          "ticks": 660480,
          "time": 37.941136,
          "velocity": 0.7874015748031497
        },
        {
          "duration": 0.8823520000000045,
          "durationTicks": 15360,
          "midi": 57,
          "name": "A3",
          "ticks": 675840,
          "time": 38.823488,
          "velocity": 0.7874015748031497
        },
        {
          "duration": 0.8823519999999974,
          "durationTicks": 15360,
          "midi": 55,
          "name": "G3",
          "ticks": 691200,
          "time": 39.70584,
          "velocity": 0.7874015748031497
        },
        {
          "duration": 0.8823520000000045,
          "durationTicks": 15360,
          "midi": 52,
          "name": "E3",
          "ticks": 706560,
          "time": 40.588192,
          "velocity": 0.7874015748031497
        },
        {
          "duration": 0.8823519999999974,
          "durationTicks": 15360,
          "midi": 55,
          "name": "G3",
          "ticks": 721920,
          "time": 41.470544000000004,
          "velocity": 0.7874015748031497
        },
        {
          "duration": 0.8823519999999974,
          "durationTicks": 15360,
          "midi": 48,
          "name": "C3",
          "ticks": 737280,
          "time": 42.352896,
          "velocity": 0.7874015748031497
        },
        {
          "duration": 0.8823520000000045,
          "durationTicks": 15360,
          "midi": 47,
          "name": "B2",
          "ticks": 752640,
          "time": 43.235248,
          "velocity": 0.7874015748031497
        },
        {
          "duration": 0.8823519999999974,
          "durationTicks": 15360,
          "midi": 50,
          "name": "D3",
          "ticks": 768000,
          "time": 44.1176,
          "velocity": 0.7874015748031497
        },
        {
          "duration": 0.8823520000000045,
          "durationTicks": 15360,
          "midi": 53,
          "name": "F3",
          "ticks": 783360,
          "time": 44.999952,
          "velocity": 0.7874015748031497
        },
        {
          "duration": 0.8823519999999974,
          "durationTicks": 15360,
          "midi": 60,
          "name": "C4",
          "ticks": 798720,
          "time": 45.882304000000005,
          "velocity": 0.7874015748031497
        },
        {
          "duration": 0.8823519999999974,
          "durationTicks": 15360,
          "midi": 59,
          "name": "B3",
          "ticks": 814080,
          "time": 46.764656,
          "velocity": 0.7874015748031497
        },
        {
          "duration": 0.8823520000000045,
          "durationTicks": 15360,
          "midi": 62,
          "name": "D4",
          "ticks": 829440,
          "time": 47.647008,
          "velocity": 0.7874015748031497
        },
        {
          "duration": 0.8823519999999974,
          "durationTicks": 15360,
          "midi": 65,
          "name": "F4",
          "ticks": 844800,
          "time": 48.529360000000004,
          "velocity": 0.7874015748031497
        },
        {
          "duration": 0.8823519999999974,
          "durationTicks": 15360,
          "midi": 57,
          "name": "A3",
          "ticks": 860160,
          "time": 49.411712,
          "velocity": 0.7874015748031497
        },
        {
          "duration": 0.8823520000000045,
          "durationTicks": 15360,
          "midi": 55,
          "name": "G3",
          "ticks": 875520,
          "time": 50.294064,
          "velocity": 0.7874015748031497
        },
        {
          "duration": 0.8823519999999974,
          "durationTicks": 15360,
          "midi": 54,
          "name": "F#3",
          "ticks": 890880,
          "time": 51.176416,
          "velocity": 0.7874015748031497
        },
        {
          "duration": 0.8823519999999974,
          "durationTicks": 15360,
          "midi": 52,
          "name": "E3",
          "ticks": 906240,
          "time": 52.058768,
          "velocity": 0.7874015748031497
        },
        {
          "duration": 0.8823520000000045,
          "durationTicks": 15360,
          "midi": 50,
          "name": "D3",
          "ticks": 921600,
          "time": 52.94112,
          "velocity": 0.7874015748031497
        },
        {
          "duration": 0.8823519999999974,
          "durationTicks": 15360,
          "midi": 48,
          "name": "C3",
          "ticks": 936960,
          "time": 53.823472,
          "velocity": 0.7874015748031497
        },
        {
          "duration": 0.8823520000000045,
          "durationTicks": 15360,
          "midi": 47,
          "name": "B2",
          "ticks": 952320,
          "time": 54.705824,
          "velocity": 0.7874015748031497
        },
        {
          "duration": 1.7647039999999947,
          "durationTicks": 30720,
          "midi": 45,
          "name": "A2",
          "ticks": 967680,
          "time": 55.588176000000004,
          "velocity": 0.7874015748031497
        }
];

export default cueSet2;
