{
  "accessors": [
    {
      "bufferView": 1,
      "componentType": 5126,
      "count": 10393,
      "max": [
        0.49684420228004456,
        4.4704866409301758,
        1.5363898277282715
      ],
      "min": [
        -0.49683952331542969,
        -0.099486649036407471,
        -1.7516850233078003
      ],
      "type": "VEC3"
    },
    {
      "bufferView": 1,
      "byteOffset": 124716,
      "componentType": 5126,
      "count": 10393,
      "max": [
        1,
        0.99990904331207275,
        1
      ],
      "min": [
        -0.99999994039535522,
        -1,
        -0.99996715784072876
      ],
      "type": "VEC3"
    },
    {
      "bufferView": 0,
      "componentType": 5125,
      "count": 61236,
      "max": [
        10392
      ],
      "min": [
        0
      ],
      "type": "SCALAR"
    }
  ],
  "asset": {
    "extras": {
      "author": "acmabute (https://sketchfab.com/acmabute)",
      "license": "CC-BY-4.0 (http://creativecommons.org/licenses/by/4.0/)",
      "source": "https://sketchfab.com/3d-models/eighth-note-quaver-d0ac32d6475f46469df63df93b1c4e23",
      "title": "Eighth Note (Quaver)"
    },
    "generator": "Sketchfab-9.9.0",
    "version": "2.0"
  },
  "bufferViews": [
    {
      "buffer": 0,
      "byteLength": 244944,
      "byteOffset": 0,
      "name": "floatBufferViews",
      "target": 34963
    },
    {
      "buffer": 0,
      "byteLength": 249432,
      "byteOffset": 244944,
      "byteStride": 12,
      "name": "floatBufferViews",
      "target": 34962
    }
  ],
  "buffers": [
    {
      "byteLength": 494376,
      "uri": "Quaver.bin"
    }
  ],
  "materials": [
    {
      "doubleSided": true,
      "name": "Scene_-_Root",
      "pbrMetallicRoughness": {
        "baseColorFactor": [
          1,
          1,
          1,
          1
        ],
        "metallicFactor": 0,
        "roughnessFactor": 0.59999999999999998
      }
    }
  ],
  "meshes": [
    {
      "primitives": [
        {
          "attributes": {
            "NORMAL": 1,
            "POSITION": 0
          },
          "indices": 2,
          "material": 0,
          "mode": 4
        }
      ]
    }
  ],
  "nodes": [
    {
      "children": [
        1
      ],
      "name": "RootNode (gltf orientation matrix)",
      "rotation": [
        -0.70710678118654746,
        -0,
        -0,
        0.70710678118654757
      ]
    },
    {
      "children": [
        2
      ],
      "name": "RootNode (model correction matrix)"
    },
    {
      "children": [
        3
      ],
      "name": "Note2.stl.cleaner.materialmerger.gles"
    },
    {
      "mesh": 0,
      "name": ""
    }
  ],
  "scene": 0,
  "scenes": [
    {
      "name": "OSG_Scene",
      "nodes": [
        0
      ]
    }
  ]
}

